<?xml version="1.0" encoding="UTF-8"?>
<svg width="586px" height="163px" viewBox="0 0 586 163" version="1.1" xmlns="http://www.w3.org/2000/svg" xmlns:xlink="http://www.w3.org/1999/xlink">
    <!-- Generator: Sketch 61 (89581) - https://sketch.com -->
    <title>Tablet</title>
    <desc>Created with Sketch.</desc>
    <defs>
        <linearGradient x1="100%" y1="50%" x2="0%" y2="50%" id="linearGradient-1">
            <stop stop-color="#069CC7" offset="0%"></stop>
            <stop stop-color="#FF25C3" offset="100%"></stop>
        </linearGradient>
        <linearGradient x1="100%" y1="50%" x2="0%" y2="50%" id="linearGradient-2">
            <stop stop-color="#FF25C3" offset="0%"></stop>
            <stop stop-color="#069CC7" offset="100%"></stop>
        </linearGradient>
    </defs>
    <g id="Tablet" stroke="none" stroke-width="1" fill="none" fill-rule="evenodd">
        <g id="Rectangle-Copy" transform="translate(-46.000000, -5.000000)"></g>
        <rect id="Rectangle" fill="url(#linearGradient-1)" transform="translate(293.000000, 129.500000) rotate(0.250000) translate(-293.000000, -129.500000) " x="1" y="98" width="584" height="63"></rect>
        <rect id="Rectangle-Copy-2" fill="url(#linearGradient-2)" transform="translate(294.500000, 39.500000) rotate(-0.250000) translate(-294.500000, -39.500000) " x="16" y="8" width="557" height="63"></rect>
        <path d="M47.728,61.216 C61.56,61.216 73.644,51.032 73.644,34.236 C73.644,17.288 61.56,7.18 47.728,7.18 C33.896,7.18 21.812,17.288 21.812,34.236 C21.812,51.032 33.896,61.216 47.728,61.216 Z M47.728,60 C37.012,60 33.364,48.524 33.364,34.236 C33.364,19.796 37.012,8.396 47.728,8.396 C58.368,8.396 62.092,19.796 62.092,34.236 C62.092,48.524 58.368,60 47.728,60 Z M122.272308,60 L122.272308,58.86 L119.764308,58.404 C116.724308,57.948 116.268308,57.036 116.268308,53.996 L116.268308,33.932 C116.268308,25.8 111.556308,21.924 104.716308,21.924 C95.9763077,21.924 91.7203077,29.752 91.7203077,41.304 C91.7203077,34.084 91.8723077,27.776 92.1763077,22.684 L90.7323077,22.152 L76.4443077,25.268 L76.4443077,26.332 L78.9523077,26.484 C82.5243077,26.788 83.5883077,27.548 83.5883077,31.196 L83.5883077,53.996 C83.5883077,57.036 83.0563077,57.948 80.0163077,58.404 L77.5843077,58.86 L77.5843077,60 C81.2323077,60 84.3483077,59.924 87.9963077,59.924 C91.7203077,59.924 94.7603077,60 98.4843077,60 L98.4843077,58.86 L96.0523077,58.404 C93.3163077,57.948 92.7843077,57.188 92.7843077,54.072 L92.7843077,41.304 C92.7843077,30.816 96.8883077,24.736 101.600308,24.736 C105.400308,24.736 106.996308,27.092 106.996308,33.172 L106.996308,54.072 C106.996308,57.188 106.464308,57.948 103.728308,58.404 L101.372308,58.86 L101.372308,60 C105.020308,60 108.212308,59.924 111.860308,59.924 C115.584308,59.924 118.548308,60 122.272308,60 Z M153.256923,17.06 L153.256923,11.056 C153.256923,7.94 153.484923,4.444 153.864923,1.632 L152.572923,1.1 L136.916923,4.14 L136.916923,5.052 L140.032923,5.432 C143.376923,5.812 144.060923,6.572 144.060923,9.688 L144.060923,53.996 C144.060923,57.036 143.528923,57.948 140.564923,58.404 L138.056923,58.86 L138.056923,60 C141.780923,60 144.820923,59.924 148.544923,59.924 C152.192923,59.924 155.308923,60 158.956923,60 L158.956923,58.86 L156.600923,58.404 C153.788923,57.948 153.256923,57.188 153.256923,54.072 L153.256923,41.304 C153.256923,30.664 157.512923,24.736 162.072923,24.736 C165.948923,24.736 167.544923,27.016 167.544923,33.096 L167.544923,54.072 C167.544923,57.188 167.012923,57.948 164.276923,58.404 L161.844923,58.86 L161.844923,60 C165.568923,60 168.684923,59.924 172.332923,59.924 C176.056923,59.924 179.096923,60 182.744923,60 L182.744923,58.86 L180.312923,58.404 C177.272923,57.948 176.740923,57.036 176.740923,53.996 L176.740923,33.856 C176.740923,25.724 172.104923,21.924 165.264923,21.924 C156.8519,21.924 152.299504,29.2740406 152.194772,40.8921808 L152.192923,41.304 C152.192923,31.652 153.256923,26.256 153.256923,17.06 Z M194.285231,14.704 C197.933231,14.704 200.593231,12.5 200.593231,8.776 C200.593231,5.052 197.933231,2.848 194.285231,2.848 C190.865231,2.848 188.129231,5.052 188.129231,8.776 C188.129231,12.348 190.865231,14.704 194.285231,14.704 Z M205.761231,60 L205.761231,58.86 L203.329231,58.404 C200.365231,57.948 199.833231,57.036 199.833231,54.072 L199.833231,31.652 C199.833231,28.536 199.909231,25.572 200.289231,22.532 L198.769231,22.076 L183.493231,25.192 L183.493231,26.256 L185.925231,26.484 C189.573231,26.712 190.561231,27.472 190.561231,31.196 L190.561231,53.996 C190.561231,57.036 190.029231,57.948 187.065231,58.404 L184.557231,58.86 L184.557231,60 C188.357231,60 191.473231,59.924 195.197231,59.924 C198.997231,59.924 202.037231,60 205.761231,60 Z M219.125539,61.14 C225.281539,61.14 229.689539,57.948 230.981539,52.856 C231.513539,58.86 233.945539,60.912 238.429539,60.912 C243.597539,60.912 245.649539,58.176 245.877539,50.272 L244.661539,50.272 C244.357539,56.58 243.141539,58.252 241.241539,58.252 C239.417539,58.252 238.733539,56.96 238.733539,54.3 L238.733957,54.1326526 C238.740004,52.2083478 238.809539,35.4156522 238.809539,34.616 C238.809539,26.104 233.261539,22 223.837539,22 C215.857539,22 210.233539,26.18 210.233539,31.576 C210.233539,35.224 212.361539,37.58 215.705539,37.58 C218.821539,37.58 221.025539,35.756 221.025539,32.792 C221.025539,28.764 217.225539,28.992 217.225539,26.484 C217.225539,24.888 219.505539,23.14 223.457539,23.14 C228.625539,23.14 229.917539,25.724 229.917539,32.412 L229.917539,40.088 C218.669539,41.152 208.409539,43.964 208.409539,52.4 C208.409539,57.644 212.057539,61.14 219.125539,61.14 Z M223.229539,58.252 C219.809539,58.252 217.833539,55.82 217.833539,51.64 C217.833539,44.496 221.861539,42.368 229.841539,41.152 L229.841539,49.816 C229.841539,55.668 226.801539,58.252 223.229539,58.252 Z M261.445846,60.988 C268.057846,60.988 270.869846,57.644 272.389846,50.272 L271.097846,50.044 C269.729846,55.744 267.753846,58.024 264.941846,58.024 C262.205846,58.024 260.609846,56.732 260.609846,51.716 L260.609846,25.648 L272.465846,25.116 L272.465846,22.988 L260.609846,22.988 L260.989846,11.436 L256.505846,11.436 L255.289846,17.136 C254.453846,20.936 252.933846,22.38 249.741846,22.836 L244.269846,23.672 L244.269846,24.964 L251.413846,26.104 L251.413846,51.108 C251.413846,57.872 255.441846,60.988 261.445846,60.988 Z M289.022154,61.14 C297.610154,61.14 301.258154,54.68 301.258154,44.268 L301.258154,59.24 L302.246154,60 L315.394154,60 L315.394154,58.86 L312.506154,58.404 C309.772265,58.0345556 309.408978,56.8749105 309.390905,54.2266552 L309.390154,29.752 L309.694154,22.988 L294.114154,22.988 L294.114154,24.128 L297.078154,24.584 C299.814154,25.04 300.118154,26.332 300.118154,29.068 L300.118154,44.268 C300.118154,53.92 296.470154,58.404 292.442154,58.404 C289.174154,58.404 287.046154,56.656 287.046154,50.196 L287.046154,29.372 L287.350154,22.988 L271.846154,22.988 L271.846154,24.128 L274.734154,24.584 C277.546154,25.04 277.850154,26.332 277.850154,29.068 L277.850154,49.284 C277.850154,57.416 282.486154,61.14 289.022154,61.14 Z M332.786462,61.14 C340.614462,61.14 346.542462,56.808 346.542462,49.36 C346.542462,42.216 341.070462,39.024 335.674462,37.124 C328.910462,34.616 326.022462,32.944 326.022462,28.84 C326.022462,25.648 328.150462,23.064 332.786462,23.064 C337.422462,23.064 340.538462,27.244 343.274462,36.06 L344.642462,36.06 L344.642462,22 L344.034462,22 L341.982462,25.116 C339.778462,23.064 336.586462,21.924 332.786462,21.924 C324.958462,21.924 319.410462,26.636 319.410462,33.096 C319.410462,40.164 324.578462,43.204 330.202462,45.256 C337.270462,47.764 340.006462,49.664 340.006462,53.768 C340.006462,58.024 336.814462,59.924 332.710462,59.924 C327.466462,59.924 323.286462,55.972 320.170462,45.256 L318.802462,45.256 L318.802462,61.064 L319.410462,61.064 L321.690462,57.568 C324.198462,59.848 327.922462,61.14 332.786462,61.14 Z M380.567077,61.14 C387.863077,61.14 392.043077,56.428 392.043077,44.192 L392.043077,59.24 L393.031077,60 L406.179077,60 L406.179077,58.86 L403.747077,58.404 C400.707077,57.948 400.175077,57.036 400.175077,53.996 L400.175077,11.056 C400.175077,8.016 400.327077,4.368 400.707077,1.632 L399.415077,1.1 L382.999077,4.14 L382.999077,5.052 L386.191077,5.432 C389.915077,5.812 390.903077,6.876 390.903077,10.068 L390.903077,23.292 C388.775077,22.38 386.343077,21.924 383.683077,21.924 C375.551077,21.924 364.911077,27.624 364.911077,41.836 C364.911077,54.832 372.739077,61.14 380.567077,61.14 Z M382.847077,59.088 C377.223077,59.088 374.943077,53.54 374.943077,41.836 C374.943077,29.144 377.831077,23.064 383.759077,23.064 C386.571077,23.064 389.231077,24.052 390.903077,26.94 L390.903077,44.192 C390.903077,54.908 387.255077,59.088 382.847077,59.088 Z M422.887385,61.14 C431.475385,61.14 435.123385,54.68 435.123385,44.268 L435.123385,59.24 L436.111385,60 L449.259385,60 L449.259385,58.86 L446.371385,58.404 C443.559385,58.024 443.255385,56.808 443.255385,53.996 L443.255385,29.752 L443.559385,22.988 L427.979385,22.988 L427.979385,24.128 L430.943385,24.584 C433.679385,25.04 433.983385,26.332 433.983385,29.068 L433.983385,44.268 C433.983385,53.92 430.335385,58.404 426.307385,58.404 C423.039385,58.404 420.911385,56.656 420.911385,50.196 L420.911385,29.372 L421.215385,22.988 L405.711385,22.988 L405.711385,24.128 L408.599385,24.584 C411.411385,25.04 411.715385,26.332 411.715385,29.068 L411.715385,49.284 C411.715385,57.416 416.351385,61.14 422.887385,61.14 Z M468.931692,61.064 C475.999692,61.064 480.559692,57.644 483.979692,51.26 L482.915692,50.652 C479.951692,55.896 476.379692,58.024 471.819692,58.024 C464.979692,58.024 461.179692,52.248 461.179692,41.608 L461.179692,39.328 L461.179692,39.328 L483.675692,39.404 C483.903692,38.34 483.979692,37.048 483.979692,35.528 C483.979692,26.864 478.203692,21.924 469.311692,21.924 C460.191692,21.924 451.147692,28.688 451.147692,41.684 C451.147692,54.376 459.583692,61.064 468.931692,61.064 Z M461.255692,38.112 C461.787692,27.244 464.827692,23.064 469.387692,23.064 C475.239692,23.064 475.315692,29.904 474.859692,35.908 L474.707692,37.2 L461.255692,38.112 Z M517.016308,60.988 C523.628308,60.988 526.440308,57.644 527.960308,50.272 L526.668308,50.044 C525.300308,55.744 523.324308,58.024 520.512308,58.024 C517.776308,58.024 516.180308,56.732 516.180308,51.716 L516.180308,25.648 L528.036308,25.116 L528.036308,22.988 L516.180308,22.988 L516.560308,11.436 L512.076308,11.436 L510.860308,17.136 C510.024308,20.936 508.504308,22.38 505.312308,22.836 L499.840308,23.672 L499.840308,24.964 L506.984308,26.104 L506.984308,51.108 C506.984308,57.872 511.012308,60.988 517.016308,60.988 Z M548.772616,61.14 C558.576616,61.14 566.936616,53.92 566.936616,41.532 C566.936616,29.144 558.576616,21.924 548.772616,21.924 C539.044616,21.924 530.608616,29.144 530.608616,41.532 C530.608616,53.92 539.044616,61.14 548.772616,61.14 Z M548.772616,59.924 C542.388616,59.924 540.564616,52.552 540.564616,41.532 C540.564616,30.512 542.388616,23.064 548.772616,23.064 C555.232616,23.064 556.980616,30.512 556.980616,41.532 C556.980616,52.552 555.232616,59.924 548.772616,59.924 Z" id="Onhiatusdueto" fill="#FFFFFF" fill-rule="nonzero" transform="translate(294.374308, 31.158000) rotate(0.250000) translate(-294.374308, -31.158000) "></path>
        <path d="M25.76,147.064 C32.828,147.064 37.388,143.644 40.808,137.26 L39.744,136.652 C36.78,141.896 33.208,144.024 28.648,144.024 C21.808,144.024 18.008,138.248 18.008,127.608 L18.008,125.328 L18.008,125.328 L40.504,125.404 C40.732,124.34 40.808,123.048 40.808,121.528 C40.808,112.864 35.032,107.924 26.14,107.924 C17.02,107.924 7.976,114.688 7.976,127.684 C7.976,140.376 16.412,147.064 25.76,147.064 Z M18.084,124.112 C18.616,113.244 21.656,109.064 26.216,109.064 C32.068,109.064 32.144,115.904 31.688,121.908 L31.536,123.2 L18.084,124.112 Z M84.4203077,146 L84.4203077,144.86 L82.6723077,144.556 C80.0883077,144.1 78.5683077,142.96 75.7563077,138.552 L67.1683077,125.024 L72.1843077,118.184 C75.8323077,113.244 78.2643077,111.268 82.1403077,110.508 L83.8123077,110.128 L83.8123077,108.988 C81.1523077,109.064 78.4923077,109.064 75.8323077,109.064 C73.1723077,109.064 70.5123077,109.064 67.8523077,108.988 L67.8523077,110.128 L69.9803077,110.508 C72.0323077,110.888 73.0963077,111.572 73.0963077,112.864 C73.0963077,113.928 72.4883077,115.372 71.1203077,117.348 L66.4083077,123.884 L62.2283077,116.664 C60.1763077,113.016 59.9483077,110.812 63.2163077,110.356 L64.8883077,110.128 L64.8883077,108.988 C61.2403077,109.064 57.5923077,109.064 53.9443077,109.064 C50.2963077,109.064 46.6483077,109.064 43.0003077,108.988 L43.0003077,110.128 L44.7483077,110.432 C47.3323077,110.964 48.6243077,111.952 51.4363077,116.436 L59.1883077,128.596 L52.9563077,137.032 C49.4603077,141.744 46.8763077,143.796 43.2283077,144.48 L41.4803077,144.86 L41.4803077,146 C44.2163077,146 46.9523077,145.924 49.6883077,145.924 C52.4243077,145.924 55.1603077,146 57.8963077,146 L57.8963077,144.86 L55.8443077,144.48 C53.5643077,144.024 52.4243077,143.34 52.4243077,141.972 C52.4243077,140.908 52.9563077,139.464 54.2483077,137.716 L59.9483077,129.736 L64.8883077,138.324 C67.2443077,142.276 67.0923077,144.176 63.5963077,144.632 L61.6203077,144.86 L61.6203077,146 C65.4203077,146 69.2203077,145.924 73.0203077,145.924 C76.8203077,145.924 80.6203077,146 84.4203077,146 Z M95.3526154,100.704 C99.0006154,100.704 101.660615,98.5 101.660615,94.776 C101.660615,91.052 99.0006154,88.848 95.3526154,88.848 C91.9326154,88.848 89.1966154,91.052 89.1966154,94.776 C89.1966154,98.348 91.9326154,100.704 95.3526154,100.704 Z M106.828615,146 L106.828615,144.86 L104.396615,144.404 C101.432615,143.948 100.900615,143.036 100.900615,140.072 L100.900615,117.652 C100.900615,114.536 100.976615,111.572 101.356615,108.532 L99.8366154,108.076 L84.5606154,111.192 L84.5606154,112.256 L86.9926154,112.484 C90.6406154,112.712 91.6286154,113.472 91.6286154,117.196 L91.6286154,139.996 C91.6286154,143.036 91.0966154,143.948 88.1326154,144.404 L85.6246154,144.86 L85.6246154,146 C89.4246154,146 92.5406154,145.924 96.2646154,145.924 C100.064615,145.924 103.104615,146 106.828615,146 Z M124.296923,147.14 C132.124923,147.14 138.052923,142.808 138.052923,135.36 C138.052923,128.216 132.580923,125.024 127.184923,123.124 C120.420923,120.616 117.532923,118.944 117.532923,114.84 C117.532923,111.648 119.660923,109.064 124.296923,109.064 C128.932923,109.064 132.048923,113.244 134.784923,122.06 L136.152923,122.06 L136.152923,108 L135.544923,108 L133.492923,111.116 C131.288923,109.064 128.096923,107.924 124.296923,107.924 C116.468923,107.924 110.920923,112.636 110.920923,119.096 C110.920923,126.164 116.088923,129.204 121.712923,131.256 C128.780923,133.764 131.516923,135.664 131.516923,139.768 C131.516923,144.024 128.324923,145.924 124.220923,145.924 C118.976923,145.924 114.796923,141.972 111.680923,131.256 L110.312923,131.256 L110.312923,147.064 L110.920923,147.064 L113.200923,143.568 C115.708923,145.848 119.432923,147.14 124.296923,147.14 Z M157.345231,146.988 C163.957231,146.988 166.769231,143.644 168.289231,136.272 L166.997231,136.044 C165.629231,141.744 163.653231,144.024 160.841231,144.024 C158.105231,144.024 156.509231,142.732 156.509231,137.716 L156.509231,111.648 L168.365231,111.116 L168.365231,108.988 L156.509231,108.988 L156.889231,97.436 L152.405231,97.436 L151.189231,103.136 C150.353231,106.936 148.833231,108.38 145.641231,108.836 L140.169231,109.672 L140.169231,110.964 L147.313231,112.104 L147.313231,137.108 C147.313231,143.872 151.341231,146.988 157.345231,146.988 Z M188.721539,147.064 C195.789539,147.064 200.349539,143.644 203.769539,137.26 L202.705539,136.652 C199.741539,141.896 196.169539,144.024 191.609539,144.024 C184.769539,144.024 180.969539,138.248 180.969539,127.608 L180.969539,125.328 L180.969539,125.328 L203.465539,125.404 C203.693539,124.34 203.769539,123.048 203.769539,121.528 C203.769539,112.864 197.993539,107.924 189.101539,107.924 C179.981539,107.924 170.937539,114.688 170.937539,127.684 C170.937539,140.376 179.373539,147.064 188.721539,147.064 Z M181.045539,124.112 C181.577539,113.244 184.617539,109.064 189.177539,109.064 C195.029539,109.064 195.105539,115.904 194.649539,121.908 L194.497539,123.2 L181.045539,124.112 Z M252.397846,146 L252.397846,144.86 L249.889846,144.404 C246.849846,143.948 246.393846,143.036 246.393846,139.996 L246.393846,119.932 C246.393846,111.8 241.681846,107.924 234.841846,107.924 C226.101846,107.924 221.845846,115.752 221.845846,127.304 C221.845846,120.084 221.997846,113.776 222.301846,108.684 L220.857846,108.152 L206.569846,111.268 L206.569846,112.332 L209.077846,112.484 C212.649846,112.788 213.713846,113.548 213.713846,117.196 L213.713846,139.996 C213.713846,143.036 213.181846,143.948 210.141846,144.404 L207.709846,144.86 L207.709846,146 C211.357846,146 214.473846,145.924 218.121846,145.924 C221.845846,145.924 224.885846,146 228.609846,146 L228.609846,144.86 L226.177846,144.404 C223.441846,143.948 222.909846,143.188 222.909846,140.072 L222.909846,127.304 C222.909846,116.816 227.013846,110.736 231.725846,110.736 C235.525846,110.736 237.121846,113.092 237.121846,119.172 L237.121846,140.072 C237.121846,143.188 236.589846,143.948 233.853846,144.404 L231.497846,144.86 L231.497846,146 C235.145846,146 238.337846,145.924 241.985846,145.924 C245.709846,145.924 248.673846,146 252.397846,146 Z M269.258154,146.988 C275.870154,146.988 278.682154,143.644 280.202154,136.272 L278.910154,136.044 C277.542154,141.744 275.566154,144.024 272.754154,144.024 C270.018154,144.024 268.422154,142.732 268.422154,137.716 L268.422154,111.648 L280.278154,111.116 L280.278154,108.988 L268.422154,108.988 L268.802154,97.436 L264.318154,97.436 L263.102154,103.136 C262.266154,106.936 260.746154,108.38 257.554154,108.836 L252.082154,109.672 L252.082154,110.964 L259.226154,112.104 L259.226154,137.108 C259.226154,143.872 263.254154,146.988 269.258154,146.988 Z M292.046462,100.704 C295.694462,100.704 298.354462,98.5 298.354462,94.776 C298.354462,91.052 295.694462,88.848 292.046462,88.848 C288.626462,88.848 285.890462,91.052 285.890462,94.776 C285.890462,98.348 288.626462,100.704 292.046462,100.704 Z M303.522462,146 L303.522462,144.86 L301.090462,144.404 C298.126462,143.948 297.594462,143.036 297.594462,140.072 L297.594462,117.652 C297.594462,114.536 297.670462,111.572 298.050462,108.532 L296.530462,108.076 L281.254462,111.192 L281.254462,112.256 L283.686462,112.484 C287.334462,112.712 288.322462,113.472 288.322462,117.196 L288.322462,139.996 C288.322462,143.036 287.790462,143.948 284.826462,144.404 L282.318462,144.86 L282.318462,146 C286.118462,146 289.234462,145.924 292.958462,145.924 C296.758462,145.924 299.798462,146 303.522462,146 Z M316.886769,147.14 C323.042769,147.14 327.450769,143.948 328.742769,138.856 C329.274769,144.86 331.706769,146.912 336.190769,146.912 C341.358769,146.912 343.410769,144.176 343.638769,136.272 L342.422769,136.272 C342.118769,142.58 340.902769,144.252 339.002769,144.252 C337.178769,144.252 336.494769,142.96 336.494769,140.3 L336.494957,140.209774 C336.499111,138.720889 336.570769,121.427768 336.570769,120.616 C336.570769,112.104 331.022769,108 321.598769,108 C313.618769,108 307.994769,112.18 307.994769,117.576 C307.994769,121.224 310.122769,123.58 313.466769,123.58 C316.582769,123.58 318.786769,121.756 318.786769,118.792 C318.786769,114.764 314.986769,114.992 314.986769,112.484 C314.986769,110.888 317.266769,109.14 321.218769,109.14 C326.386769,109.14 327.678769,111.724 327.678769,118.412 L327.678769,126.088 C316.430769,127.152 306.170769,129.964 306.170769,138.4 C306.170769,143.644 309.818769,147.14 316.886769,147.14 Z M320.990769,144.252 C317.570769,144.252 315.594769,141.82 315.594769,137.64 C315.594769,130.496 319.622769,128.368 327.602769,127.152 L327.602769,135.816 C327.602769,141.668 324.562769,144.252 320.990769,144.252 Z M364.527077,146 L364.527077,144.86 L362.095077,144.404 C359.055077,143.948 358.523077,143.036 358.523077,139.996 L358.523077,97.056 C358.523077,94.016 358.751077,90.444 359.131077,87.632 L357.839077,87.1 L342.183077,90.14 L342.183077,91.052 L345.299077,91.432 C348.643077,91.812 349.327077,92.648 349.327077,95.764 L349.327077,139.996 C349.327077,143.036 348.795077,143.948 345.831077,144.404 L343.323077,144.86 L343.323077,146 C347.123077,146 350.239077,145.924 353.963077,145.924 C357.763077,145.924 360.803077,146 364.527077,146 Z M398.779692,147.064 C405.847692,147.064 410.483692,143.72 413.903692,137.26 L412.839692,136.652 C409.875692,141.896 406.303692,144.024 401.743692,144.024 C394.903692,144.024 391.103692,138.248 391.103692,127.608 C391.103692,115.068 394.675692,109.064 401.059692,109.064 C404.479692,109.064 406.455692,110.508 406.455692,111.876 C406.455692,113.852 402.199692,113.852 402.199692,118.488 C402.199692,121.528 404.479692,123.428 407.671692,123.428 C411.243692,123.428 413.599692,120.692 413.599692,117.272 C413.599692,111.952 408.659692,107.848 400.755692,107.848 C390.571692,107.848 381.071692,114.992 381.071692,127.76 C381.071692,140.604 389.659692,147.064 398.779692,147.064 Z M440.188,146 L440.188,144.86 L437.376,144.404 C434.336,143.948 433.5,143.036 433.5,139.768 L433.5,131.56 C433.5,128.976 433.652,124.948 434.336,121.148 C435.4,115.676 437.452,112.864 439.124,112.864 C439.58,112.864 439.884,113.168 439.884,113.776 C439.96,114.308 439.884,115.068 439.96,115.752 C440.188,118.26 441.86,120.008 444.9,120.008 C448.092,120.008 450.752,117.804 450.752,113.928 C450.752,110.28 448.244,107.696 444.064,107.696 C437.528,107.696 434.412,113.472 433.272,120.844 C432.664,124.872 432.512,128.292 432.512,131.56 L432.512994,130.136457 C432.526633,120.53626 432.681675,113.539163 433.044,108.684 L431.6,108.152 L417.312,111.268 L417.312,112.332 L419.82,112.484 C423.392,112.788 424.456,113.548 424.456,117.196 L424.456,139.996 C424.456,143.036 423.924,143.948 420.884,144.404 L418.452,144.86 L418.452,146 C422.176,146 425.292,145.924 429.016,145.924 C432.816,145.924 436.464,146 440.188,146 Z M462.976308,100.704 C466.624308,100.704 469.284308,98.5 469.284308,94.776 C469.284308,91.052 466.624308,88.848 462.976308,88.848 C459.556308,88.848 456.820308,91.052 456.820308,94.776 C456.820308,98.348 459.556308,100.704 462.976308,100.704 Z M474.452308,146 L474.452308,144.86 L472.020308,144.404 C469.056308,143.948 468.524308,143.036 468.524308,140.072 L468.524308,117.652 C468.524308,114.536 468.600308,111.572 468.980308,108.532 L467.460308,108.076 L452.184308,111.192 L452.184308,112.256 L454.616308,112.484 C458.264308,112.712 459.252308,113.472 459.252308,117.196 L459.252308,139.996 C459.252308,143.036 458.720308,143.948 455.756308,144.404 L453.248308,144.86 L453.248308,146 C457.048308,146 460.164308,145.924 463.888308,145.924 C467.688308,145.924 470.728308,146 474.452308,146 Z M491.920616,147.14 C499.748616,147.14 505.676616,142.808 505.676616,135.36 C505.676616,128.216 500.204616,125.024 494.808616,123.124 C488.044616,120.616 485.156616,118.944 485.156616,114.84 C485.156616,111.648 487.284616,109.064 491.920616,109.064 C496.556616,109.064 499.672616,113.244 502.408616,122.06 L503.776616,122.06 L503.776616,108 L503.168616,108 L501.116616,111.116 C498.912616,109.064 495.720616,107.924 491.920616,107.924 C484.092616,107.924 478.544616,112.636 478.544616,119.096 C478.544616,126.164 483.712616,129.204 489.336616,131.256 C496.404616,133.764 499.140616,135.664 499.140616,139.768 C499.140616,144.024 495.948616,145.924 491.844616,145.924 C486.600616,145.924 482.420616,141.972 479.304616,131.256 L477.936616,131.256 L477.936616,147.064 L478.544616,147.064 L480.824616,143.568 C483.332616,145.848 487.056616,147.14 491.920616,147.14 Z M519.724923,100.704 C523.372923,100.704 526.032923,98.5 526.032923,94.776 C526.032923,91.052 523.372923,88.848 519.724923,88.848 C516.304923,88.848 513.568923,91.052 513.568923,94.776 C513.568923,98.348 516.304923,100.704 519.724923,100.704 Z M531.200923,146 L531.200923,144.86 L528.768923,144.404 C525.804923,143.948 525.272923,143.036 525.272923,140.072 L525.272923,117.652 C525.272923,114.536 525.348923,111.572 525.728923,108.532 L524.208923,108.076 L508.932923,111.192 L508.932923,112.256 L511.364923,112.484 C515.012923,112.712 516.000923,113.472 516.000923,117.196 L516.000923,139.996 C516.000923,143.036 515.468923,143.948 512.504923,144.404 L509.996923,144.86 L509.996923,146 C513.796923,146 516.912923,145.924 520.636923,145.924 C524.436923,145.924 527.476923,146 531.200923,146 Z M548.669231,147.14 C556.497231,147.14 562.425231,142.808 562.425231,135.36 C562.425231,128.216 556.953231,125.024 551.557231,123.124 C544.793231,120.616 541.905231,118.944 541.905231,114.84 C541.905231,111.648 544.033231,109.064 548.669231,109.064 C553.305231,109.064 556.421231,113.244 559.157231,122.06 L560.525231,122.06 L560.525231,108 L559.917231,108 L557.865231,111.116 C555.661231,109.064 552.469231,107.924 548.669231,107.924 C540.841231,107.924 535.293231,112.636 535.293231,119.096 C535.293231,126.164 540.461231,129.204 546.085231,131.256 C553.153231,133.764 555.889231,135.664 555.889231,139.768 C555.889231,144.024 552.697231,145.924 548.593231,145.924 C543.349231,145.924 539.169231,141.972 536.053231,131.256 L534.685231,131.256 L534.685231,147.064 L535.293231,147.064 L537.573231,143.568 C540.081231,145.848 543.805231,147.14 548.669231,147.14 Z M573.889539,146.76 C577.081539,146.76 579.817539,144.48 579.817539,140.908 C579.817539,137.26 577.157539,134.904 573.889539,134.904 C570.621539,134.904 567.885539,137.26 567.885539,140.908 C567.885539,144.404 570.621539,146.76 573.889539,146.76 Z" id="existentialcrisis." fill="#FFFFFF" fill-rule="nonzero" transform="translate(293.896769, 117.120000) rotate(-0.250000) translate(-293.896769, -117.120000) "></path>
    </g>
</svg>